<mxfile host="Electron" agent="Mozilla/5.0 (Windows NT 10.0; Win64; x64) AppleWebKit/537.36 (KHTML, like Gecko) draw.io/24.7.17 Chrome/128.0.6613.36 Electron/32.0.1 Safari/537.36" version="24.7.17">
  <diagram id="C5RBs43oDa-KdzZeNtuy" name="Page-1">
    <mxGraphModel dx="1247" dy="734" grid="1" gridSize="10" guides="1" tooltips="1" connect="1" arrows="1" fold="1" page="1" pageScale="1" pageWidth="1654" pageHeight="1169" math="0" shadow="0">
      <root>
        <mxCell id="WIyWlLk6GJQsqaUBKTNV-0" />
        <mxCell id="WIyWlLk6GJQsqaUBKTNV-1" parent="WIyWlLk6GJQsqaUBKTNV-0" />
        <mxCell id="wNG5AQzF8lPSqnR4uY4q-0" value="Engine Tool - Klassendiagramm" style="text;strokeColor=none;fillColor=none;html=1;fontSize=24;fontStyle=1;verticalAlign=middle;align=center;" vertex="1" parent="WIyWlLk6GJQsqaUBKTNV-1">
          <mxGeometry x="619" y="30" width="416" height="40" as="geometry" />
        </mxCell>
        <mxCell id="wNG5AQzF8lPSqnR4uY4q-1" value="TerrainData" style="swimlane;fontStyle=0;childLayout=stackLayout;horizontal=1;startSize=26;fillColor=none;horizontalStack=0;resizeParent=1;resizeParentMax=0;resizeLast=0;collapsible=1;marginBottom=0;whiteSpace=wrap;html=1;" vertex="1" parent="WIyWlLk6GJQsqaUBKTNV-1">
          <mxGeometry x="1317" y="230" width="250" height="520" as="geometry" />
        </mxCell>
        <mxCell id="wNG5AQzF8lPSqnR4uY4q-2" value="+ MapSize: float" style="text;strokeColor=none;fillColor=none;align=left;verticalAlign=top;spacingLeft=4;spacingRight=4;overflow=hidden;rotatable=0;points=[[0,0.5],[1,0.5]];portConstraint=eastwest;whiteSpace=wrap;html=1;" vertex="1" parent="wNG5AQzF8lPSqnR4uY4q-1">
          <mxGeometry y="26" width="250" height="26" as="geometry" />
        </mxCell>
        <mxCell id="wNG5AQzF8lPSqnR4uY4q-3" value="+ MaxTerrainHeight: float" style="text;strokeColor=none;fillColor=none;align=left;verticalAlign=top;spacingLeft=4;spacingRight=4;overflow=hidden;rotatable=0;points=[[0,0.5],[1,0.5]];portConstraint=eastwest;whiteSpace=wrap;html=1;" vertex="1" parent="wNG5AQzF8lPSqnR4uY4q-1">
          <mxGeometry y="52" width="250" height="26" as="geometry" />
        </mxCell>
        <mxCell id="wNG5AQzF8lPSqnR4uY4q-43" value="+ MaxTerrainHeight: float" style="text;strokeColor=none;fillColor=none;align=left;verticalAlign=top;spacingLeft=4;spacingRight=4;overflow=hidden;rotatable=0;points=[[0,0.5],[1,0.5]];portConstraint=eastwest;whiteSpace=wrap;html=1;" vertex="1" parent="wNG5AQzF8lPSqnR4uY4q-1">
          <mxGeometry y="78" width="250" height="26" as="geometry" />
        </mxCell>
        <mxCell id="wNG5AQzF8lPSqnR4uY4q-4" value="+ BaseHeight: float" style="text;strokeColor=none;fillColor=none;align=left;verticalAlign=top;spacingLeft=4;spacingRight=4;overflow=hidden;rotatable=0;points=[[0,0.5],[1,0.5]];portConstraint=eastwest;whiteSpace=wrap;html=1;" vertex="1" parent="wNG5AQzF8lPSqnR4uY4q-1">
          <mxGeometry y="104" width="250" height="26" as="geometry" />
        </mxCell>
        <mxCell id="wNG5AQzF8lPSqnR4uY4q-44" value="+ TerrainLayerHeight01: float" style="text;strokeColor=none;fillColor=none;align=left;verticalAlign=top;spacingLeft=4;spacingRight=4;overflow=hidden;rotatable=0;points=[[0,0.5],[1,0.5]];portConstraint=eastwest;whiteSpace=wrap;html=1;" vertex="1" parent="wNG5AQzF8lPSqnR4uY4q-1">
          <mxGeometry y="130" width="250" height="26" as="geometry" />
        </mxCell>
        <mxCell id="wNG5AQzF8lPSqnR4uY4q-45" value="+ TerrainLayerHeight02: float" style="text;strokeColor=none;fillColor=none;align=left;verticalAlign=top;spacingLeft=4;spacingRight=4;overflow=hidden;rotatable=0;points=[[0,0.5],[1,0.5]];portConstraint=eastwest;whiteSpace=wrap;html=1;" vertex="1" parent="wNG5AQzF8lPSqnR4uY4q-1">
          <mxGeometry y="156" width="250" height="26" as="geometry" />
        </mxCell>
        <mxCell id="wNG5AQzF8lPSqnR4uY4q-46" value="+ TerrainLayerHeight03: float" style="text;strokeColor=none;fillColor=none;align=left;verticalAlign=top;spacingLeft=4;spacingRight=4;overflow=hidden;rotatable=0;points=[[0,0.5],[1,0.5]];portConstraint=eastwest;whiteSpace=wrap;html=1;" vertex="1" parent="wNG5AQzF8lPSqnR4uY4q-1">
          <mxGeometry y="182" width="250" height="26" as="geometry" />
        </mxCell>
        <mxCell id="wNG5AQzF8lPSqnR4uY4q-47" value="+ TransitionSharpness: float" style="text;strokeColor=none;fillColor=none;align=left;verticalAlign=top;spacingLeft=4;spacingRight=4;overflow=hidden;rotatable=0;points=[[0,0.5],[1,0.5]];portConstraint=eastwest;whiteSpace=wrap;html=1;" vertex="1" parent="wNG5AQzF8lPSqnR4uY4q-1">
          <mxGeometry y="208" width="250" height="26" as="geometry" />
        </mxCell>
        <mxCell id="wNG5AQzF8lPSqnR4uY4q-48" value="+ Density: int" style="text;strokeColor=none;fillColor=none;align=left;verticalAlign=top;spacingLeft=4;spacingRight=4;overflow=hidden;rotatable=0;points=[[0,0.5],[1,0.5]];portConstraint=eastwest;whiteSpace=wrap;html=1;" vertex="1" parent="wNG5AQzF8lPSqnR4uY4q-1">
          <mxGeometry y="234" width="250" height="26" as="geometry" />
        </mxCell>
        <mxCell id="wNG5AQzF8lPSqnR4uY4q-49" value="+ VerticalOffset: float" style="text;strokeColor=none;fillColor=none;align=left;verticalAlign=top;spacingLeft=4;spacingRight=4;overflow=hidden;rotatable=0;points=[[0,0.5],[1,0.5]];portConstraint=eastwest;whiteSpace=wrap;html=1;" vertex="1" parent="wNG5AQzF8lPSqnR4uY4q-1">
          <mxGeometry y="260" width="250" height="26" as="geometry" />
        </mxCell>
        <mxCell id="wNG5AQzF8lPSqnR4uY4q-50" value="+ MaxRotationTowardsTerrainNormal: float" style="text;strokeColor=none;fillColor=none;align=left;verticalAlign=top;spacingLeft=4;spacingRight=4;overflow=hidden;rotatable=0;points=[[0,0.5],[1,0.5]];portConstraint=eastwest;whiteSpace=wrap;html=1;" vertex="1" parent="wNG5AQzF8lPSqnR4uY4q-1">
          <mxGeometry y="286" width="250" height="26" as="geometry" />
        </mxCell>
        <mxCell id="wNG5AQzF8lPSqnR4uY4q-51" value="+ MinRotation: float" style="text;strokeColor=none;fillColor=none;align=left;verticalAlign=top;spacingLeft=4;spacingRight=4;overflow=hidden;rotatable=0;points=[[0,0.5],[1,0.5]];portConstraint=eastwest;whiteSpace=wrap;html=1;" vertex="1" parent="wNG5AQzF8lPSqnR4uY4q-1">
          <mxGeometry y="312" width="250" height="26" as="geometry" />
        </mxCell>
        <mxCell id="wNG5AQzF8lPSqnR4uY4q-52" value="+ MaxRotation: float" style="text;strokeColor=none;fillColor=none;align=left;verticalAlign=top;spacingLeft=4;spacingRight=4;overflow=hidden;rotatable=0;points=[[0,0.5],[1,0.5]];portConstraint=eastwest;whiteSpace=wrap;html=1;" vertex="1" parent="wNG5AQzF8lPSqnR4uY4q-1">
          <mxGeometry y="338" width="250" height="26" as="geometry" />
        </mxCell>
        <mxCell id="wNG5AQzF8lPSqnR4uY4q-53" value="+ MinXScale: float" style="text;strokeColor=none;fillColor=none;align=left;verticalAlign=top;spacingLeft=4;spacingRight=4;overflow=hidden;rotatable=0;points=[[0,0.5],[1,0.5]];portConstraint=eastwest;whiteSpace=wrap;html=1;" vertex="1" parent="wNG5AQzF8lPSqnR4uY4q-1">
          <mxGeometry y="364" width="250" height="26" as="geometry" />
        </mxCell>
        <mxCell id="wNG5AQzF8lPSqnR4uY4q-54" value="+ MinYScale: float" style="text;strokeColor=none;fillColor=none;align=left;verticalAlign=top;spacingLeft=4;spacingRight=4;overflow=hidden;rotatable=0;points=[[0,0.5],[1,0.5]];portConstraint=eastwest;whiteSpace=wrap;html=1;" vertex="1" parent="wNG5AQzF8lPSqnR4uY4q-1">
          <mxGeometry y="390" width="250" height="26" as="geometry" />
        </mxCell>
        <mxCell id="wNG5AQzF8lPSqnR4uY4q-55" value="+ MinZScale: float" style="text;strokeColor=none;fillColor=none;align=left;verticalAlign=top;spacingLeft=4;spacingRight=4;overflow=hidden;rotatable=0;points=[[0,0.5],[1,0.5]];portConstraint=eastwest;whiteSpace=wrap;html=1;" vertex="1" parent="wNG5AQzF8lPSqnR4uY4q-1">
          <mxGeometry y="416" width="250" height="26" as="geometry" />
        </mxCell>
        <mxCell id="wNG5AQzF8lPSqnR4uY4q-56" value="+ MaxXScale: float" style="text;strokeColor=none;fillColor=none;align=left;verticalAlign=top;spacingLeft=4;spacingRight=4;overflow=hidden;rotatable=0;points=[[0,0.5],[1,0.5]];portConstraint=eastwest;whiteSpace=wrap;html=1;" vertex="1" parent="wNG5AQzF8lPSqnR4uY4q-1">
          <mxGeometry y="442" width="250" height="26" as="geometry" />
        </mxCell>
        <mxCell id="wNG5AQzF8lPSqnR4uY4q-57" value="+ MaxYScale: float" style="text;strokeColor=none;fillColor=none;align=left;verticalAlign=top;spacingLeft=4;spacingRight=4;overflow=hidden;rotatable=0;points=[[0,0.5],[1,0.5]];portConstraint=eastwest;whiteSpace=wrap;html=1;" vertex="1" parent="wNG5AQzF8lPSqnR4uY4q-1">
          <mxGeometry y="468" width="250" height="26" as="geometry" />
        </mxCell>
        <mxCell id="wNG5AQzF8lPSqnR4uY4q-58" value="+ MaxZScale: float" style="text;strokeColor=none;fillColor=none;align=left;verticalAlign=top;spacingLeft=4;spacingRight=4;overflow=hidden;rotatable=0;points=[[0,0.5],[1,0.5]];portConstraint=eastwest;whiteSpace=wrap;html=1;" vertex="1" parent="wNG5AQzF8lPSqnR4uY4q-1">
          <mxGeometry y="494" width="250" height="26" as="geometry" />
        </mxCell>
        <mxCell id="wNG5AQzF8lPSqnR4uY4q-5" value="MainWindowViewModel" style="swimlane;fontStyle=1;align=center;verticalAlign=top;childLayout=stackLayout;horizontal=1;startSize=26;horizontalStack=0;resizeParent=1;resizeParentMax=0;resizeLast=0;collapsible=1;marginBottom=0;whiteSpace=wrap;html=1;" vertex="1" parent="WIyWlLk6GJQsqaUBKTNV-1">
          <mxGeometry x="667" y="390" width="320" height="717" as="geometry" />
        </mxCell>
        <mxCell id="wNG5AQzF8lPSqnR4uY4q-6" value="- _myData: TerrainData" style="text;strokeColor=none;fillColor=none;align=left;verticalAlign=top;spacingLeft=4;spacingRight=4;overflow=hidden;rotatable=0;points=[[0,0.5],[1,0.5]];portConstraint=eastwest;whiteSpace=wrap;html=1;" vertex="1" parent="wNG5AQzF8lPSqnR4uY4q-5">
          <mxGeometry y="26" width="320" height="26" as="geometry" />
        </mxCell>
        <mxCell id="wNG5AQzF8lPSqnR4uY4q-7" value="" style="line;strokeWidth=1;fillColor=none;align=left;verticalAlign=middle;spacingTop=-1;spacingLeft=3;spacingRight=3;rotatable=0;labelPosition=right;points=[];portConstraint=eastwest;strokeColor=inherit;" vertex="1" parent="wNG5AQzF8lPSqnR4uY4q-5">
          <mxGeometry y="52" width="320" height="8" as="geometry" />
        </mxCell>
        <mxCell id="wNG5AQzF8lPSqnR4uY4q-8" value="- SetBaseValues(): void" style="text;strokeColor=none;fillColor=none;align=left;verticalAlign=top;spacingLeft=4;spacingRight=4;overflow=hidden;rotatable=0;points=[[0,0.5],[1,0.5]];portConstraint=eastwest;whiteSpace=wrap;html=1;" vertex="1" parent="wNG5AQzF8lPSqnR4uY4q-5">
          <mxGeometry y="60" width="320" height="26" as="geometry" />
        </mxCell>
        <mxCell id="wNG5AQzF8lPSqnR4uY4q-67" value="- PropertiesAreNotNull(): bool" style="text;strokeColor=none;fillColor=none;align=left;verticalAlign=top;spacingLeft=4;spacingRight=4;overflow=hidden;rotatable=0;points=[[0,0.5],[1,0.5]];portConstraint=eastwest;whiteSpace=wrap;html=1;" vertex="1" parent="wNG5AQzF8lPSqnR4uY4q-5">
          <mxGeometry y="86" width="320" height="26" as="geometry" />
        </mxCell>
        <mxCell id="wNG5AQzF8lPSqnR4uY4q-68" value="- SaveJsonFile(): void" style="text;strokeColor=none;fillColor=none;align=left;verticalAlign=top;spacingLeft=4;spacingRight=4;overflow=hidden;rotatable=0;points=[[0,0.5],[1,0.5]];portConstraint=eastwest;whiteSpace=wrap;html=1;" vertex="1" parent="wNG5AQzF8lPSqnR4uY4q-5">
          <mxGeometry y="112" width="320" height="26" as="geometry" />
        </mxCell>
        <mxCell id="wNG5AQzF8lPSqnR4uY4q-69" value="- SetData(data: dynamic, value: string): dynamic {static}" style="text;strokeColor=none;fillColor=none;align=left;verticalAlign=top;spacingLeft=4;spacingRight=4;overflow=hidden;rotatable=0;points=[[0,0.5],[1,0.5]];portConstraint=eastwest;whiteSpace=wrap;html=1;" vertex="1" parent="wNG5AQzF8lPSqnR4uY4q-5">
          <mxGeometry y="138" width="320" height="26" as="geometry" />
        </mxCell>
        <mxCell id="wNG5AQzF8lPSqnR4uY4q-70" value="" style="line;strokeWidth=1;fillColor=none;align=left;verticalAlign=middle;spacingTop=-1;spacingLeft=3;spacingRight=3;rotatable=0;labelPosition=right;points=[];portConstraint=eastwest;strokeColor=inherit;" vertex="1" parent="wNG5AQzF8lPSqnR4uY4q-5">
          <mxGeometry y="164" width="320" height="8" as="geometry" />
        </mxCell>
        <mxCell id="wNG5AQzF8lPSqnR4uY4q-72" value="&amp;lt;&amp;lt;property&amp;gt;&amp;gt;" style="text;html=1;align=center;" vertex="1" parent="wNG5AQzF8lPSqnR4uY4q-5">
          <mxGeometry y="172" width="320" height="25" as="geometry" />
        </mxCell>
        <mxCell id="wNG5AQzF8lPSqnR4uY4q-71" value="+ ResetCommand: DelegateCommand" style="text;strokeColor=none;fillColor=none;align=left;verticalAlign=top;spacingLeft=4;spacingRight=4;overflow=hidden;rotatable=0;points=[[0,0.5],[1,0.5]];portConstraint=eastwest;whiteSpace=wrap;html=1;" vertex="1" parent="wNG5AQzF8lPSqnR4uY4q-5">
          <mxGeometry y="197" width="320" height="26" as="geometry" />
        </mxCell>
        <mxCell id="wNG5AQzF8lPSqnR4uY4q-73" value="+ SaveDataCommand: DelegateCommand" style="text;strokeColor=none;fillColor=none;align=left;verticalAlign=top;spacingLeft=4;spacingRight=4;overflow=hidden;rotatable=0;points=[[0,0.5],[1,0.5]];portConstraint=eastwest;whiteSpace=wrap;html=1;" vertex="1" parent="wNG5AQzF8lPSqnR4uY4q-5">
          <mxGeometry y="223" width="320" height="26" as="geometry" />
        </mxCell>
        <mxCell id="wNG5AQzF8lPSqnR4uY4q-74" value="+ MapSize: string" style="text;strokeColor=none;fillColor=none;align=left;verticalAlign=top;spacingLeft=4;spacingRight=4;overflow=hidden;rotatable=0;points=[[0,0.5],[1,0.5]];portConstraint=eastwest;whiteSpace=wrap;html=1;" vertex="1" parent="wNG5AQzF8lPSqnR4uY4q-5">
          <mxGeometry y="249" width="320" height="26" as="geometry" />
        </mxCell>
        <mxCell id="wNG5AQzF8lPSqnR4uY4q-75" value="+ MaxTerrainHeight: string" style="text;strokeColor=none;fillColor=none;align=left;verticalAlign=top;spacingLeft=4;spacingRight=4;overflow=hidden;rotatable=0;points=[[0,0.5],[1,0.5]];portConstraint=eastwest;whiteSpace=wrap;html=1;" vertex="1" parent="wNG5AQzF8lPSqnR4uY4q-5">
          <mxGeometry y="275" width="320" height="26" as="geometry" />
        </mxCell>
        <mxCell id="wNG5AQzF8lPSqnR4uY4q-76" value="+ BaseHeight: string" style="text;strokeColor=none;fillColor=none;align=left;verticalAlign=top;spacingLeft=4;spacingRight=4;overflow=hidden;rotatable=0;points=[[0,0.5],[1,0.5]];portConstraint=eastwest;whiteSpace=wrap;html=1;" vertex="1" parent="wNG5AQzF8lPSqnR4uY4q-5">
          <mxGeometry y="301" width="320" height="26" as="geometry" />
        </mxCell>
        <mxCell id="wNG5AQzF8lPSqnR4uY4q-77" value="+ TerrainLayerHeight01: string" style="text;strokeColor=none;fillColor=none;align=left;verticalAlign=top;spacingLeft=4;spacingRight=4;overflow=hidden;rotatable=0;points=[[0,0.5],[1,0.5]];portConstraint=eastwest;whiteSpace=wrap;html=1;" vertex="1" parent="wNG5AQzF8lPSqnR4uY4q-5">
          <mxGeometry y="327" width="320" height="26" as="geometry" />
        </mxCell>
        <mxCell id="wNG5AQzF8lPSqnR4uY4q-78" value="+ TerrainLayerHeight02: string" style="text;strokeColor=none;fillColor=none;align=left;verticalAlign=top;spacingLeft=4;spacingRight=4;overflow=hidden;rotatable=0;points=[[0,0.5],[1,0.5]];portConstraint=eastwest;whiteSpace=wrap;html=1;" vertex="1" parent="wNG5AQzF8lPSqnR4uY4q-5">
          <mxGeometry y="353" width="320" height="26" as="geometry" />
        </mxCell>
        <mxCell id="wNG5AQzF8lPSqnR4uY4q-79" value="+ TerrainLayerHeight03: string" style="text;strokeColor=none;fillColor=none;align=left;verticalAlign=top;spacingLeft=4;spacingRight=4;overflow=hidden;rotatable=0;points=[[0,0.5],[1,0.5]];portConstraint=eastwest;whiteSpace=wrap;html=1;" vertex="1" parent="wNG5AQzF8lPSqnR4uY4q-5">
          <mxGeometry y="379" width="320" height="26" as="geometry" />
        </mxCell>
        <mxCell id="wNG5AQzF8lPSqnR4uY4q-80" value="+ TransitionSharpness: float" style="text;strokeColor=none;fillColor=none;align=left;verticalAlign=top;spacingLeft=4;spacingRight=4;overflow=hidden;rotatable=0;points=[[0,0.5],[1,0.5]];portConstraint=eastwest;whiteSpace=wrap;html=1;" vertex="1" parent="wNG5AQzF8lPSqnR4uY4q-5">
          <mxGeometry y="405" width="320" height="26" as="geometry" />
        </mxCell>
        <mxCell id="wNG5AQzF8lPSqnR4uY4q-81" value="+ Density: string" style="text;strokeColor=none;fillColor=none;align=left;verticalAlign=top;spacingLeft=4;spacingRight=4;overflow=hidden;rotatable=0;points=[[0,0.5],[1,0.5]];portConstraint=eastwest;whiteSpace=wrap;html=1;" vertex="1" parent="wNG5AQzF8lPSqnR4uY4q-5">
          <mxGeometry y="431" width="320" height="26" as="geometry" />
        </mxCell>
        <mxCell id="wNG5AQzF8lPSqnR4uY4q-82" value="+ VerticalOffset: string" style="text;strokeColor=none;fillColor=none;align=left;verticalAlign=top;spacingLeft=4;spacingRight=4;overflow=hidden;rotatable=0;points=[[0,0.5],[1,0.5]];portConstraint=eastwest;whiteSpace=wrap;html=1;" vertex="1" parent="wNG5AQzF8lPSqnR4uY4q-5">
          <mxGeometry y="457" width="320" height="26" as="geometry" />
        </mxCell>
        <mxCell id="wNG5AQzF8lPSqnR4uY4q-84" value="+ MaxRotationTowardsTerrainNormal: float" style="text;strokeColor=none;fillColor=none;align=left;verticalAlign=top;spacingLeft=4;spacingRight=4;overflow=hidden;rotatable=0;points=[[0,0.5],[1,0.5]];portConstraint=eastwest;whiteSpace=wrap;html=1;" vertex="1" parent="wNG5AQzF8lPSqnR4uY4q-5">
          <mxGeometry y="483" width="320" height="26" as="geometry" />
        </mxCell>
        <mxCell id="wNG5AQzF8lPSqnR4uY4q-85" value="+ MinRotation: float" style="text;strokeColor=none;fillColor=none;align=left;verticalAlign=top;spacingLeft=4;spacingRight=4;overflow=hidden;rotatable=0;points=[[0,0.5],[1,0.5]];portConstraint=eastwest;whiteSpace=wrap;html=1;" vertex="1" parent="wNG5AQzF8lPSqnR4uY4q-5">
          <mxGeometry y="509" width="320" height="26" as="geometry" />
        </mxCell>
        <mxCell id="wNG5AQzF8lPSqnR4uY4q-86" value="+ MaxRotation: float" style="text;strokeColor=none;fillColor=none;align=left;verticalAlign=top;spacingLeft=4;spacingRight=4;overflow=hidden;rotatable=0;points=[[0,0.5],[1,0.5]];portConstraint=eastwest;whiteSpace=wrap;html=1;" vertex="1" parent="wNG5AQzF8lPSqnR4uY4q-5">
          <mxGeometry y="535" width="320" height="26" as="geometry" />
        </mxCell>
        <mxCell id="wNG5AQzF8lPSqnR4uY4q-87" value="+ MinXScale: string" style="text;strokeColor=none;fillColor=none;align=left;verticalAlign=top;spacingLeft=4;spacingRight=4;overflow=hidden;rotatable=0;points=[[0,0.5],[1,0.5]];portConstraint=eastwest;whiteSpace=wrap;html=1;" vertex="1" parent="wNG5AQzF8lPSqnR4uY4q-5">
          <mxGeometry y="561" width="320" height="26" as="geometry" />
        </mxCell>
        <mxCell id="wNG5AQzF8lPSqnR4uY4q-88" value="+ MinYScale: string" style="text;strokeColor=none;fillColor=none;align=left;verticalAlign=top;spacingLeft=4;spacingRight=4;overflow=hidden;rotatable=0;points=[[0,0.5],[1,0.5]];portConstraint=eastwest;whiteSpace=wrap;html=1;" vertex="1" parent="wNG5AQzF8lPSqnR4uY4q-5">
          <mxGeometry y="587" width="320" height="26" as="geometry" />
        </mxCell>
        <mxCell id="wNG5AQzF8lPSqnR4uY4q-89" value="+ MinZScale: string" style="text;strokeColor=none;fillColor=none;align=left;verticalAlign=top;spacingLeft=4;spacingRight=4;overflow=hidden;rotatable=0;points=[[0,0.5],[1,0.5]];portConstraint=eastwest;whiteSpace=wrap;html=1;" vertex="1" parent="wNG5AQzF8lPSqnR4uY4q-5">
          <mxGeometry y="613" width="320" height="26" as="geometry" />
        </mxCell>
        <mxCell id="wNG5AQzF8lPSqnR4uY4q-93" value="+ MaxXScale: string" style="text;strokeColor=none;fillColor=none;align=left;verticalAlign=top;spacingLeft=4;spacingRight=4;overflow=hidden;rotatable=0;points=[[0,0.5],[1,0.5]];portConstraint=eastwest;whiteSpace=wrap;html=1;" vertex="1" parent="wNG5AQzF8lPSqnR4uY4q-5">
          <mxGeometry y="639" width="320" height="26" as="geometry" />
        </mxCell>
        <mxCell id="wNG5AQzF8lPSqnR4uY4q-94" value="+ MaxYScale: string" style="text;strokeColor=none;fillColor=none;align=left;verticalAlign=top;spacingLeft=4;spacingRight=4;overflow=hidden;rotatable=0;points=[[0,0.5],[1,0.5]];portConstraint=eastwest;whiteSpace=wrap;html=1;" vertex="1" parent="wNG5AQzF8lPSqnR4uY4q-5">
          <mxGeometry y="665" width="320" height="26" as="geometry" />
        </mxCell>
        <mxCell id="wNG5AQzF8lPSqnR4uY4q-95" value="+ MaxZScale: string" style="text;strokeColor=none;fillColor=none;align=left;verticalAlign=top;spacingLeft=4;spacingRight=4;overflow=hidden;rotatable=0;points=[[0,0.5],[1,0.5]];portConstraint=eastwest;whiteSpace=wrap;html=1;" vertex="1" parent="wNG5AQzF8lPSqnR4uY4q-5">
          <mxGeometry y="691" width="320" height="26" as="geometry" />
        </mxCell>
        <mxCell id="wNG5AQzF8lPSqnR4uY4q-9" value="&lt;i&gt;BaseViewModel&lt;/i&gt;" style="swimlane;fontStyle=1;align=center;verticalAlign=top;childLayout=stackLayout;horizontal=1;startSize=26;horizontalStack=0;resizeParent=1;resizeParentMax=0;resizeLast=0;collapsible=1;marginBottom=0;whiteSpace=wrap;html=1;" vertex="1" parent="WIyWlLk6GJQsqaUBKTNV-1">
          <mxGeometry x="660" y="150" width="335" height="111" as="geometry" />
        </mxCell>
        <mxCell id="wNG5AQzF8lPSqnR4uY4q-12" value="# RaisePropertyChanged(propertyName: string): virtual void" style="text;strokeColor=none;fillColor=none;align=left;verticalAlign=top;spacingLeft=4;spacingRight=4;overflow=hidden;rotatable=0;points=[[0,0.5],[1,0.5]];portConstraint=eastwest;whiteSpace=wrap;html=1;" vertex="1" parent="wNG5AQzF8lPSqnR4uY4q-9">
          <mxGeometry y="26" width="335" height="26" as="geometry" />
        </mxCell>
        <mxCell id="wNG5AQzF8lPSqnR4uY4q-11" value="" style="line;strokeWidth=1;fillColor=none;align=left;verticalAlign=middle;spacingTop=-1;spacingLeft=3;spacingRight=3;rotatable=0;labelPosition=right;points=[];portConstraint=eastwest;strokeColor=inherit;" vertex="1" parent="wNG5AQzF8lPSqnR4uY4q-9">
          <mxGeometry y="52" width="335" height="8" as="geometry" />
        </mxCell>
        <mxCell id="wNG5AQzF8lPSqnR4uY4q-31" value="&amp;lt;&amp;lt;event&amp;gt;&amp;gt;" style="text;html=1;align=center;" vertex="1" parent="wNG5AQzF8lPSqnR4uY4q-9">
          <mxGeometry y="60" width="335" height="25" as="geometry" />
        </mxCell>
        <mxCell id="wNG5AQzF8lPSqnR4uY4q-10" value="&lt;div&gt;&lt;span style=&quot;background-color: initial;&quot;&gt;+ PropertyChanged: PropertyChangedEventHandler&lt;/span&gt;&lt;br&gt;&lt;/div&gt;" style="text;strokeColor=none;fillColor=none;align=left;verticalAlign=top;spacingLeft=4;spacingRight=4;overflow=hidden;rotatable=0;points=[[0,0.5],[1,0.5]];portConstraint=eastwest;whiteSpace=wrap;html=1;" vertex="1" parent="wNG5AQzF8lPSqnR4uY4q-9">
          <mxGeometry y="85" width="335" height="26" as="geometry" />
        </mxCell>
        <mxCell id="wNG5AQzF8lPSqnR4uY4q-15" value="DelegateCommand" style="swimlane;fontStyle=1;align=center;verticalAlign=top;childLayout=stackLayout;horizontal=1;startSize=26;horizontalStack=0;resizeParent=1;resizeParentMax=0;resizeLast=0;collapsible=1;marginBottom=0;whiteSpace=wrap;html=1;" vertex="1" parent="WIyWlLk6GJQsqaUBKTNV-1">
          <mxGeometry x="1210" y="800" width="357" height="223" as="geometry" />
        </mxCell>
        <mxCell id="wNG5AQzF8lPSqnR4uY4q-16" value="+ _execute: Action&amp;lt;object&amp;gt; {readonly}" style="text;strokeColor=none;fillColor=none;align=left;verticalAlign=top;spacingLeft=4;spacingRight=4;overflow=hidden;rotatable=0;points=[[0,0.5],[1,0.5]];portConstraint=eastwest;whiteSpace=wrap;html=1;" vertex="1" parent="wNG5AQzF8lPSqnR4uY4q-15">
          <mxGeometry y="26" width="357" height="26" as="geometry" />
        </mxCell>
        <mxCell id="wNG5AQzF8lPSqnR4uY4q-61" value="+ _canExecute: Func&amp;lt;object, bool&amp;gt; {readonly}" style="text;strokeColor=none;fillColor=none;align=left;verticalAlign=top;spacingLeft=4;spacingRight=4;overflow=hidden;rotatable=0;points=[[0,0.5],[1,0.5]];portConstraint=eastwest;whiteSpace=wrap;html=1;" vertex="1" parent="wNG5AQzF8lPSqnR4uY4q-15">
          <mxGeometry y="52" width="357" height="26" as="geometry" />
        </mxCell>
        <mxCell id="wNG5AQzF8lPSqnR4uY4q-17" value="" style="line;strokeWidth=1;fillColor=none;align=left;verticalAlign=middle;spacingTop=-1;spacingLeft=3;spacingRight=3;rotatable=0;labelPosition=right;points=[];portConstraint=eastwest;strokeColor=inherit;" vertex="1" parent="wNG5AQzF8lPSqnR4uY4q-15">
          <mxGeometry y="78" width="357" height="8" as="geometry" />
        </mxCell>
        <mxCell id="wNG5AQzF8lPSqnR4uY4q-18" value="+ CanExecute(parameter: object): bool" style="text;strokeColor=none;fillColor=none;align=left;verticalAlign=top;spacingLeft=4;spacingRight=4;overflow=hidden;rotatable=0;points=[[0,0.5],[1,0.5]];portConstraint=eastwest;whiteSpace=wrap;html=1;" vertex="1" parent="wNG5AQzF8lPSqnR4uY4q-15">
          <mxGeometry y="86" width="357" height="26" as="geometry" />
        </mxCell>
        <mxCell id="wNG5AQzF8lPSqnR4uY4q-64" value="+ Execute(parameter: object): void" style="text;strokeColor=none;fillColor=none;align=left;verticalAlign=top;spacingLeft=4;spacingRight=4;overflow=hidden;rotatable=0;points=[[0,0.5],[1,0.5]];portConstraint=eastwest;whiteSpace=wrap;html=1;" vertex="1" parent="wNG5AQzF8lPSqnR4uY4q-15">
          <mxGeometry y="112" width="357" height="26" as="geometry" />
        </mxCell>
        <mxCell id="wNG5AQzF8lPSqnR4uY4q-65" value="+ RaiseCanExecuteChanged(): void" style="text;strokeColor=none;fillColor=none;align=left;verticalAlign=top;spacingLeft=4;spacingRight=4;overflow=hidden;rotatable=0;points=[[0,0.5],[1,0.5]];portConstraint=eastwest;whiteSpace=wrap;html=1;" vertex="1" parent="wNG5AQzF8lPSqnR4uY4q-15">
          <mxGeometry y="138" width="357" height="26" as="geometry" />
        </mxCell>
        <mxCell id="wNG5AQzF8lPSqnR4uY4q-66" value="" style="line;strokeWidth=1;fillColor=none;align=left;verticalAlign=middle;spacingTop=-1;spacingLeft=3;spacingRight=3;rotatable=0;labelPosition=right;points=[];portConstraint=eastwest;strokeColor=inherit;" vertex="1" parent="wNG5AQzF8lPSqnR4uY4q-15">
          <mxGeometry y="164" width="357" height="8" as="geometry" />
        </mxCell>
        <mxCell id="wNG5AQzF8lPSqnR4uY4q-62" value="&amp;lt;&amp;lt;event&amp;gt;&amp;gt;" style="text;html=1;align=center;" vertex="1" parent="wNG5AQzF8lPSqnR4uY4q-15">
          <mxGeometry y="172" width="357" height="25" as="geometry" />
        </mxCell>
        <mxCell id="wNG5AQzF8lPSqnR4uY4q-63" value="&lt;div&gt;&lt;span style=&quot;background-color: initial;&quot;&gt;+ CanExecuteChanged: EventHandler&lt;/span&gt;&lt;br&gt;&lt;/div&gt;" style="text;strokeColor=none;fillColor=none;align=left;verticalAlign=top;spacingLeft=4;spacingRight=4;overflow=hidden;rotatable=0;points=[[0,0.5],[1,0.5]];portConstraint=eastwest;whiteSpace=wrap;html=1;" vertex="1" parent="wNG5AQzF8lPSqnR4uY4q-15">
          <mxGeometry y="197" width="357" height="26" as="geometry" />
        </mxCell>
        <mxCell id="wNG5AQzF8lPSqnR4uY4q-19" value="«interface»&lt;br&gt;&lt;b&gt;ICo&lt;/b&gt;&lt;b style=&quot;background-color: initial;&quot;&gt;mmand&lt;/b&gt;" style="html=1;whiteSpace=wrap;" vertex="1" parent="WIyWlLk6GJQsqaUBKTNV-1">
          <mxGeometry x="1333.5" y="1090" width="110" height="50" as="geometry" />
        </mxCell>
        <mxCell id="wNG5AQzF8lPSqnR4uY4q-20" value="«interface»&lt;br&gt;&lt;b&gt;INotifyPropertyChanged&lt;/b&gt;" style="html=1;whiteSpace=wrap;" vertex="1" parent="WIyWlLk6GJQsqaUBKTNV-1">
          <mxGeometry x="290" y="150" width="170" height="50" as="geometry" />
        </mxCell>
        <mxCell id="wNG5AQzF8lPSqnR4uY4q-29" value="" style="endArrow=block;dashed=1;endFill=0;endSize=12;html=1;rounded=0;entryX=1;entryY=0.5;entryDx=0;entryDy=0;exitX=0;exitY=0.09;exitDx=0;exitDy=0;exitPerimeter=0;edgeStyle=entityRelationEdgeStyle;" edge="1" parent="WIyWlLk6GJQsqaUBKTNV-1" source="wNG5AQzF8lPSqnR4uY4q-9" target="wNG5AQzF8lPSqnR4uY4q-20">
          <mxGeometry width="160" relative="1" as="geometry">
            <mxPoint x="435" y="470" as="sourcePoint" />
            <mxPoint x="595" y="470" as="targetPoint" />
          </mxGeometry>
        </mxCell>
        <mxCell id="wNG5AQzF8lPSqnR4uY4q-30" value="" style="endArrow=block;dashed=1;endFill=0;endSize=12;html=1;rounded=0;exitX=0.496;exitY=1;exitDx=0;exitDy=0;exitPerimeter=0;entryX=0.5;entryY=0;entryDx=0;entryDy=0;" edge="1" parent="WIyWlLk6GJQsqaUBKTNV-1" source="wNG5AQzF8lPSqnR4uY4q-63" target="wNG5AQzF8lPSqnR4uY4q-19">
          <mxGeometry width="160" relative="1" as="geometry">
            <mxPoint x="218" y="720" as="sourcePoint" />
            <mxPoint x="215" y="750" as="targetPoint" />
          </mxGeometry>
        </mxCell>
        <mxCell id="wNG5AQzF8lPSqnR4uY4q-36" value="1" style="endArrow=open;html=1;endSize=12;startArrow=diamondThin;startSize=14;startFill=1;align=left;verticalAlign=bottom;rounded=0;entryX=0;entryY=0.5;entryDx=0;entryDy=0;exitX=1;exitY=0.5;exitDx=0;exitDy=0;edgeStyle=orthogonalEdgeStyle;" edge="1" parent="WIyWlLk6GJQsqaUBKTNV-1" source="wNG5AQzF8lPSqnR4uY4q-96" target="wNG5AQzF8lPSqnR4uY4q-72">
          <mxGeometry x="-1" y="3" relative="1" as="geometry">
            <mxPoint x="250" y="405.7460000000001" as="sourcePoint" />
            <mxPoint x="460" y="450" as="targetPoint" />
          </mxGeometry>
        </mxCell>
        <mxCell id="wNG5AQzF8lPSqnR4uY4q-37" value="name" style="endArrow=block;endFill=1;html=1;align=right;verticalAlign=bottom;rounded=0;textDirection=ltr;horizontal=1;entryX=0.5;entryY=1.036;entryDx=0;entryDy=0;entryPerimeter=0;exitX=0.5;exitY=0;exitDx=0;exitDy=0;" edge="1" parent="WIyWlLk6GJQsqaUBKTNV-1" source="wNG5AQzF8lPSqnR4uY4q-5" target="wNG5AQzF8lPSqnR4uY4q-10">
          <mxGeometry x="-1" relative="1" as="geometry">
            <mxPoint x="600" y="210" as="sourcePoint" />
            <mxPoint x="480" y="320" as="targetPoint" />
            <mxPoint as="offset" />
          </mxGeometry>
        </mxCell>
        <mxCell id="wNG5AQzF8lPSqnR4uY4q-38" value="1" style="edgeLabel;resizable=0;html=1;align=left;verticalAlign=bottom;" connectable="0" vertex="1" parent="wNG5AQzF8lPSqnR4uY4q-37">
          <mxGeometry x="-1" relative="1" as="geometry" />
        </mxCell>
        <mxCell id="wNG5AQzF8lPSqnR4uY4q-40" value="1" style="endArrow=open;html=1;endSize=12;startArrow=diamondThin;startSize=14;startFill=1;align=left;verticalAlign=bottom;rounded=0;entryX=-0.005;entryY=0.05;entryDx=0;entryDy=0;entryPerimeter=0;exitX=1;exitY=0.5;exitDx=0;exitDy=0;edgeStyle=entityRelationEdgeStyle;" edge="1" parent="WIyWlLk6GJQsqaUBKTNV-1" source="wNG5AQzF8lPSqnR4uY4q-71" target="wNG5AQzF8lPSqnR4uY4q-15">
          <mxGeometry x="-0.9695" y="12" relative="1" as="geometry">
            <mxPoint x="650" y="390" as="sourcePoint" />
            <mxPoint x="835" y="440" as="targetPoint" />
            <mxPoint y="1" as="offset" />
          </mxGeometry>
        </mxCell>
        <mxCell id="wNG5AQzF8lPSqnR4uY4q-41" value="1" style="endArrow=open;html=1;endSize=12;startArrow=diamondThin;startSize=14;startFill=1;align=left;verticalAlign=bottom;rounded=0;exitX=1;exitY=0.5;exitDx=0;exitDy=0;entryX=0.003;entryY=0.033;entryDx=0;entryDy=0;entryPerimeter=0;edgeStyle=entityRelationEdgeStyle;" edge="1" parent="WIyWlLk6GJQsqaUBKTNV-1" source="wNG5AQzF8lPSqnR4uY4q-6" target="wNG5AQzF8lPSqnR4uY4q-1">
          <mxGeometry x="-1" y="3" relative="1" as="geometry">
            <mxPoint x="570" y="340" as="sourcePoint" />
            <mxPoint x="880" y="280" as="targetPoint" />
          </mxGeometry>
        </mxCell>
        <mxCell id="wNG5AQzF8lPSqnR4uY4q-96" value="MainWindow" style="html=1;whiteSpace=wrap;" vertex="1" parent="WIyWlLk6GJQsqaUBKTNV-1">
          <mxGeometry x="180" y="549.5" width="110" height="50" as="geometry" />
        </mxCell>
      </root>
    </mxGraphModel>
  </diagram>
</mxfile>
